<?xml version="1.0" encoding="UTF-8"?>
<svg width="130" height="40" viewBox="0 0 130 40" xmlns="http://www.w3.org/2000/svg">
  <g fill="none" fill-rule="evenodd">
    <!-- Blog/Document Icon -->
    <path d="M24,4 C25.1,4 26,4.9 26,6 L26,34 C26,35.1 25.1,36 24,36 L6,36 C4.9,36 4,35.1 4,34 L4,6 C4,4.9 4.9,4 6,4 L24,4 Z" fill="#28a745"/>
    <!-- Document Lines -->
    <path d="M21,10 L9,10 L9,12 L21,12 L21,10 Z M21,14 L9,14 L9,16 L21,16 L21,14 Z M21,18 L9,18 L9,20 L21,20 L21,18 Z M17,22 L9,22 L9,24 L17,24 L17,22 Z" fill="#FFFFFF"/>
    <!-- Blog Text -->
    <path d="M36,15 L39,15 C40.1,15 41,15.4 41.6,16.1 C42.2,16.8 42.5,17.7 42.5,18.8 C42.5,19.9 42.2,20.8 41.6,21.5 C41,22.2 40.1,22.6 39,22.6 L36,22.6 L36,15 Z M39,21.4 C39.7,21.4 40.3,21.2 40.7,20.7 C41.1,20.2 41.3,19.6 41.3,18.8 C41.3,18 41.1,17.4 40.7,16.9 C40.3,16.4 39.7,16.2 39,16.2 L37.2,16.2 L37.2,21.4 L39,21.4 Z" fill="#28a745"/>
    <path d="M48,15 L49.2,15 L49.2,22.6 L48,22.6 L48,15 Z" fill="#28a745"/>
    <path d="M54.7,23 C53.9,23 53.2,22.8 52.7,22.4 C52.2,22 51.9,21.4 51.9,20.6 L53.1,20.6 C53.1,21.1 53.3,21.5 53.6,21.7 C53.9,21.9 54.3,22 54.7,22 C55.1,22 55.5,21.9 55.8,21.7 C56.1,21.5 56.2,21.2 56.2,20.9 C56.2,20.6 56.1,20.3 55.9,20.1 C55.7,19.9 55.4,19.8 55,19.7 L53.9,19.4 C53.4,19.3 53,19.1 52.7,18.8 C52.4,18.5 52.2,18.1 52.2,17.6 C52.2,17 52.4,16.5 52.9,16.1 C53.4,15.7 54,15.5 54.7,15.5 C55.4,15.5 56,15.7 56.5,16.1 C57,16.5 57.2,17 57.2,17.6 L56,17.6 C56,17.2 55.9,16.9 55.6,16.7 C55.3,16.5 55,16.4 54.7,16.4 C54.4,16.4 54.1,16.5 53.8,16.7 C53.5,16.9 53.4,17.1 53.4,17.4 C53.4,17.7 53.5,17.9 53.7,18.1 C53.9,18.3 54.2,18.4 54.5,18.5 L55.6,18.8 C56.1,18.9 56.5,19.1 56.9,19.4 C57.2,19.7 57.4,20.2 57.4,20.7 C57.4,21.3 57.2,21.8 56.7,22.2 C56.2,22.6 55.5,23 54.7,23 Z" fill="#28a745"/>
    <path d="M64.3,22.6 L62.8,19.6 L61.3,22.6 L60,22.6 L62.1,18.8 L60.1,15 L61.4,15 L62.8,17.9 L64.2,15 L65.5,15 L63.5,18.8 L65.6,22.6 L64.3,22.6 Z" fill="#28a745"/>
    <path d="M70.2,15 L71.4,15 L71.4,21.4 L74.8,21.4 L74.8,22.6 L70.2,22.6 L70.2,15 Z" fill="#28a745"/>
    <path d="M79.7,15 L80.9,15 L80.9,19.1 C80.9,19.9 81.1,20.5 81.5,20.9 C81.9,21.3 82.4,21.5 83.1,21.5 C83.8,21.5 84.3,21.3 84.7,20.9 C85.1,20.5 85.3,19.9 85.3,19.1 L85.3,15 L86.5,15 L86.5,19.1 C86.5,20.2 86.2,21.1 85.6,21.7 C85,22.3 84.2,22.6 83.1,22.6 C82,22.6 81.2,22.3 80.6,21.7 C80,21.1 79.7,20.2 79.7,19.1 L79.7,15 Z" fill="#28a745"/>
    <path d="M92.9,15 L94.1,15 L94.1,22.6 L92.9,22.6 L92.9,15 Z" fill="#28a745"/>
    <path d="M99.6,15 L104.5,15 L104.5,16.2 L100.8,16.2 L100.8,18.2 L104.1,18.2 L104.1,19.4 L100.8,19.4 L100.8,21.4 L104.5,21.4 L104.5,22.6 L99.6,22.6 L99.6,15 Z" fill="#28a745"/>
    <path d="M109.2,15 L110.4,15 L110.4,21.4 L113.8,21.4 L113.8,22.6 L109.2,22.6 L109.2,15 Z" fill="#28a745"/>
  </g>
</svg>
