<?xml version="1.0" encoding="UTF-8"?>
<svg width="130" height="35" viewBox="0 0 130 35" xmlns="http://www.w3.org/2000/svg">
  <g fill="none" fill-rule="evenodd">
    <path d="M25.6,12.4 C25.6,11.5 25.1,10.6 24.2,10.2 L13.2,4.3 C12.9,4.1 12.5,4 12.1,4 C11.7,4 11.3,4.1 11,4.3 L0,10.2 C-0.9,10.6 -1.4,11.5 -1.4,12.4 L-1.4,24.2 C-1.4,25.1 -0.9,26 -0.1,26.4 L10.9,32.3 C11.3,32.5 11.7,32.6 12.1,32.6 C12.5,32.6 12.9,32.5 13.2,32.3 L24.2,26.4 C25.1,26 25.6,25.1 25.6,24.2 L25.6,12.4 Z" fill="#28a745" transform="translate(12, -1)"/>
    <path d="M40,10 L40,26 L37,26 L37,10 L40,10 Z M49.7,26.24 C48.48,26.24 47.36,25.99 46.34,25.49 C45.32,24.99 44.52,24.26 43.94,23.3 C43.36,22.34 43.07,21.2 43.07,19.88 C43.07,18.56 43.36,17.42 43.94,16.46 C44.52,15.5 45.32,14.77 46.34,14.27 C47.36,13.77 48.48,13.52 49.7,13.52 C50.92,13.52 52.04,13.77 53.06,14.27 C54.08,14.77 54.88,15.5 55.46,16.46 C56.04,17.42 56.33,18.56 56.33,19.88 C56.33,21.2 56.04,22.34 55.46,23.3 C54.88,24.26 54.08,24.99 53.06,25.49 C52.04,25.99 50.92,26.24 49.7,26.24 Z M49.7,23.66 C50.52,23.66 51.26,23.38 51.92,22.82 C52.58,22.26 52.91,21.2 52.91,19.88 C52.91,18.56 52.58,17.71 51.92,17.15 C51.26,16.59 50.52,16.31 49.7,16.31 C48.88,16.31 48.14,16.59 47.48,17.15 C46.82,17.71 46.49,18.56 46.49,19.88 C46.49,21.2 46.82,22.26 47.48,22.82 C48.14,23.38 48.88,23.66 49.7,23.66 Z M65.48,26.24 C64.39,26.24 63.41,26 62.53,25.52 C61.65,25.04 60.97,24.34 60.47,23.42 C59.97,22.5 59.72,21.4 59.72,20.12 C59.72,18.84 59.97,17.74 60.47,16.82 C60.97,15.9 61.65,15.2 62.53,14.72 C63.41,14.24 64.39,14 65.48,14 C66.28,14 67.01,14.15 67.67,14.45 C68.33,14.75 68.88,15.17 69.32,15.71 L69.32,10 L72.32,10 L72.32,26 L69.32,26 L69.32,24.44 C68.92,24.96 68.39,25.38 67.73,25.7 C67.07,26.06 66.32,26.24 65.48,26.24 Z M66.2,23.6 C67.1,23.6 67.85,23.3 68.45,22.7 C69.05,22.1 69.35,21.26 69.35,20.18 C69.35,19.1 69.05,18.26 68.45,17.66 C67.85,17.06 67.1,16.76 66.2,16.76 C65.3,16.76 64.55,17.06 63.95,17.66 C63.35,18.26 63.05,19.1 63.05,20.18 C63.05,21.26 63.35,22.1 63.95,22.7 C64.55,23.3 65.3,23.6 66.2,23.6 Z M77.44,13.06 C78,12.1 78.71,11.35 79.57,10.81 C80.43,10.27 81.41,10 82.51,10 L82.51,13.27 L81.77,13.27 C80.49,13.27 79.52,13.62 78.86,14.32 C78.2,15.02 77.87,16.15 77.87,17.71 L77.87,26 L74.87,26 L74.87,10.24 L77.44,10.24 L77.44,13.06 Z M89,26.24 C87.78,26.24 86.66,25.99 85.64,25.49 C84.62,24.99 83.82,24.26 83.24,23.3 C82.66,22.34 82.37,21.2 82.37,19.88 C82.37,18.56 82.66,17.42 83.24,16.46 C83.82,15.5 84.62,14.77 85.64,14.27 C86.66,13.77 87.78,13.52 89,13.52 C90.22,13.52 91.34,13.77 92.36,14.27 C93.38,14.77 94.18,15.5 94.76,16.46 C95.34,17.42 95.63,18.56 95.63,19.88 C95.63,21.2 95.34,22.34 94.76,23.3 C94.18,24.26 93.38,24.99 92.36,25.49 C91.34,25.99 90.22,26.24 89,26.24 Z M89,23.66 C89.82,23.66 90.56,23.38 91.22,22.82 C91.88,22.26 92.21,21.2 92.21,19.88 C92.21,18.56 91.88,17.71 91.22,17.15 C90.56,16.59 89.82,16.31 89,16.31 C88.18,16.31 87.44,16.59 86.78,17.15 C86.12,17.71 85.79,18.56 85.79,19.88 C85.79,21.2 86.12,22.26 86.78,22.82 C87.44,23.38 88.18,23.66 89,23.66 Z M105.23,26.24 C104.15,26.24 103.17,26.01 102.29,25.55 C101.41,25.09 100.72,24.4 100.22,23.48 C99.72,22.56 99.47,21.44 99.47,20.12 C99.47,18.8 99.72,17.68 100.22,16.76 C100.72,15.84 101.41,15.15 102.29,14.69 C103.17,14.23 104.15,14 105.23,14 C106.07,14 106.82,14.18 107.48,14.54 C108.14,14.86 108.68,15.31 109.1,15.89 L109.1,14.24 L112.1,14.24 L112.1,26 L109.1,26 L109.1,24.35 C108.68,24.93 108.14,25.38 107.48,25.7 C106.82,26.06 106.07,26.24 105.23,26.24 Z M105.95,23.6 C106.85,23.6 107.6,23.3 108.2,22.7 C108.8,22.1 109.1,21.26 109.1,20.18 C109.1,19.1 108.8,18.26 108.2,17.66 C107.6,17.06 106.85,16.76 105.95,16.76 C105.05,16.76 104.3,17.06 103.7,17.66 C103.1,18.26 102.8,19.1 102.8,20.18 C102.8,21.26 103.1,22.1 103.7,22.7 C104.3,23.3 105.05,23.6 105.95,23.6 Z M119.32,26.24 C118.2,26.24 117.2,26.05 116.32,25.67 C115.44,25.29 114.74,24.77 114.22,24.11 C113.7,23.45 113.4,22.7 113.32,21.86 L116.26,21.86 C116.36,22.42 116.65,22.88 117.13,23.24 C117.61,23.6 118.22,23.78 118.96,23.78 C119.66,23.78 120.2,23.63 120.58,23.33 C120.96,23.03 121.15,22.66 121.15,22.22 C121.15,21.74 120.93,21.39 120.49,21.17 C120.05,20.95 119.35,20.72 118.39,20.48 C117.47,20.26 116.71,20.04 116.11,19.82 C115.51,19.6 114.98,19.25 114.52,18.77 C114.06,18.29 113.83,17.64 113.83,16.82 C113.83,15.78 114.25,14.93 115.09,14.27 C115.93,13.61 117.05,13.28 118.45,13.28 C119.89,13.28 121.04,13.62 121.9,14.3 C122.76,14.98 123.25,15.91 123.37,17.09 L120.55,17.09 C120.47,16.55 120.2,16.13 119.74,15.83 C119.28,15.53 118.7,15.38 118,15.38 C117.36,15.38 116.86,15.52 116.5,15.8 C116.14,16.08 115.96,16.43 115.96,16.85 C115.96,17.21 116.1,17.51 116.38,17.75 C116.66,17.99 116.99,18.17 117.37,18.29 C117.75,18.41 118.31,18.56 119.05,18.74 C119.95,18.94 120.7,19.16 121.3,19.4 C121.9,19.64 122.42,20 122.86,20.48 C123.3,20.96 123.53,21.6 123.54,22.4 C123.54,23.04 123.35,23.64 122.97,24.2 C122.59,24.76 122.04,25.2 121.32,25.52 C120.6,25.84 119.76,26 118.8,26 L119.32,26.24 Z M124.76,14.24 L127.76,14.24 L127.76,26 L124.76,26 L124.76,14.24 Z M126.26,12.46 C125.7,12.46 125.24,12.28 124.88,11.92 C124.52,11.56 124.34,11.12 124.34,10.6 C124.34,10.08 124.52,9.64 124.88,9.28 C125.24,8.92 125.7,8.74 126.26,8.74 C126.82,8.74 127.28,8.91 127.64,9.25 C128,9.59 128.18,10.02 128.18,10.54 C128.18,11.1 128,11.56 127.64,11.92 C127.28,12.28 126.82,12.46 126.26,12.46 Z" fill="#28a745"/>
  </g>
</svg>
